<svg width="49" height="124" viewBox="0 0 49 124" fill="none" xmlns="http://www.w3.org/2000/svg">
<path d="M10.8911 37.0663L3.30762 39.0951L10.3274 26.9348L19.016 34.0979L12.9263 44.6466L10.8911 37.0631V37.0663Z" fill="white"/>
<path d="M37.1259 37.0663L44.7126 39.0983L37.6928 26.938L29.0042 34.1011L35.0939 44.6498L37.1259 37.0663Z" fill="white"/>
<path d="M37.7375 27.0144L44.7127 39.0983L37.126 37.0663L35.094 44.6497L29.0488 34.1743" stroke="#0A3762" stroke-width="3.43" stroke-linecap="round" stroke-linejoin="round"/>
<path d="M39.7855 19.1953C39.7855 23.3817 38.1225 27.3966 35.1623 30.3568C32.202 33.3171 28.1871 34.9801 24.0007 34.9801C19.8143 34.9801 15.7993 33.3171 12.8391 30.3568C9.87886 27.3966 8.21582 23.3817 8.21582 19.1953C8.21582 15.0089 9.87886 10.9939 12.8391 8.03368C15.7993 5.07344 19.8143 3.4104 24.0007 3.4104C28.1871 3.4104 32.202 5.07344 35.1623 8.03368C38.1225 10.9939 39.7855 15.0089 39.7855 19.1953Z" fill="#61DBBF"/>
<path d="M39.7855 19.1953C39.7855 23.3817 38.1225 27.3966 35.1623 30.3568C32.202 33.3171 28.1871 34.9801 24.0007 34.9801C19.8143 34.9801 15.7993 33.3171 12.8391 30.3568C9.87886 27.3966 8.21582 23.3817 8.21582 19.1953C8.21582 15.0089 9.87886 10.9939 12.8391 8.03368C15.7993 5.07344 19.8143 3.4104 24.0007 3.4104C28.1871 3.4104 32.202 5.07344 35.1623 8.03368C38.1225 10.9939 39.7855 15.0089 39.7855 19.1953Z" stroke="#0A3762" stroke-width="3.43" stroke-linecap="round" stroke-linejoin="round"/>
<path d="M24.6472 10.6243L26.8226 15.0005C26.871 15.1109 26.9477 15.2065 27.0451 15.2776C27.1424 15.3487 27.2569 15.3926 27.3768 15.405L32.2084 16.1376C32.3467 16.1552 32.477 16.212 32.5842 16.3012C32.6913 16.3904 32.7708 16.5082 32.8133 16.641C32.8557 16.7738 32.8594 16.9159 32.824 17.0507C32.7885 17.1855 32.7153 17.3074 32.6129 17.402L29.0425 20.7877C28.989 20.8893 28.961 21.0024 28.961 21.1173C28.961 21.2322 28.989 21.3453 29.0425 21.447L29.7273 26.2499C29.757 26.3891 29.7456 26.534 29.6943 26.6667C29.643 26.7995 29.5542 26.9145 29.4387 26.9976C29.3231 27.0807 29.1859 27.1283 29.0437 27.1347C28.9015 27.1411 28.7606 27.1059 28.638 27.0335L24.3383 24.7594C24.2272 24.7093 24.1067 24.6833 23.9848 24.6833C23.8629 24.6833 23.7423 24.7093 23.6312 24.7594L19.3315 27.0335C19.2091 27.104 19.0689 27.1376 18.9279 27.1302C18.7868 27.1229 18.6509 27.075 18.5365 26.9922C18.422 26.9094 18.334 26.7953 18.2829 26.6636C18.2318 26.5319 18.2199 26.3882 18.2486 26.2499L19.0576 21.447C19.0926 21.3351 19.0994 21.2163 19.0771 21.1012C19.0549 20.9861 19.0044 20.8784 18.9302 20.7877L15.363 17.3765C15.2672 17.2807 15.1998 17.1603 15.1684 17.0285C15.137 16.8967 15.1427 16.7588 15.185 16.6301C15.2272 16.5014 15.3043 16.387 15.4077 16.2994C15.5111 16.2119 15.6367 16.1548 15.7706 16.1344L20.6023 15.4305C20.7222 15.4181 20.8366 15.3741 20.934 15.3031C21.0313 15.232 21.1081 15.1364 21.1565 15.026L23.3318 10.653C23.3897 10.5288 23.4813 10.4233 23.5962 10.3486C23.711 10.2738 23.8446 10.2328 23.9816 10.2301C24.1186 10.2275 24.2536 10.2633 24.3713 10.3335C24.489 10.4038 24.5846 10.5057 24.6472 10.6275V10.6243Z" fill="white"/>
<path d="M24.6472 10.6243L26.8226 15.0005C26.871 15.1109 26.9477 15.2065 27.0451 15.2776C27.1424 15.3487 27.2569 15.3926 27.3768 15.405L32.2084 16.1376C32.3467 16.1552 32.477 16.212 32.5842 16.3012C32.6913 16.3904 32.7708 16.5082 32.8133 16.641C32.8557 16.7738 32.8594 16.9159 32.824 17.0507C32.7885 17.1855 32.7153 17.3074 32.6129 17.402L29.0425 20.7877C28.989 20.8893 28.961 21.0024 28.961 21.1173C28.961 21.2322 28.989 21.3453 29.0425 21.447L29.7273 26.2499C29.757 26.3891 29.7456 26.534 29.6943 26.6667C29.643 26.7995 29.5542 26.9145 29.4387 26.9976C29.3231 27.0807 29.1859 27.1283 29.0437 27.1347C28.9015 27.1411 28.7606 27.1059 28.638 27.0335L24.3383 24.7594C24.2272 24.7093 24.1067 24.6833 23.9848 24.6833C23.8629 24.6833 23.7423 24.7093 23.6312 24.7594L19.3315 27.0335C19.2091 27.104 19.0689 27.1376 18.9279 27.1302C18.7868 27.1229 18.6509 27.075 18.5365 26.9922C18.422 26.9094 18.334 26.7953 18.2829 26.6636C18.2318 26.5319 18.2199 26.3882 18.2486 26.2499L19.0576 21.447C19.0926 21.3351 19.0994 21.2163 19.0771 21.1012C19.0549 20.9861 19.0044 20.8784 18.9302 20.7877L15.363 17.3765C15.2672 17.2807 15.1998 17.1603 15.1684 17.0285C15.137 16.8967 15.1427 16.7588 15.185 16.6301C15.2272 16.5014 15.3043 16.387 15.4077 16.2994C15.5111 16.2119 15.6367 16.1548 15.7706 16.1344L20.6023 15.4305C20.7222 15.4181 20.8366 15.3741 20.934 15.3031C21.0313 15.232 21.1081 15.1364 21.1565 15.026L23.3318 10.653C23.3897 10.5288 23.4813 10.4233 23.5962 10.3486C23.711 10.2738 23.8446 10.2328 23.9816 10.2301C24.1186 10.2275 24.2536 10.2633 24.3713 10.3335C24.489 10.4038 24.5846 10.5057 24.6472 10.6275V10.6243Z" stroke="#0A3762" stroke-width="3.43" stroke-linecap="round" stroke-linejoin="round"/>
<path d="M10.2891 27.0049L3.30762 39.0951L10.8911 37.0631L12.9263 44.6498L18.9778 34.1648" stroke="#0A3762" stroke-width="3.43" stroke-linecap="round" stroke-linejoin="round"/>
<line x1="25.01" y1="64.04" x2="25.01" y2="123.04" stroke="#CDCDCD" stroke-width="2"/>
</svg>
