<svg width="67" height="67" viewBox="0 0 67 67" fill="none" xmlns="http://www.w3.org/2000/svg">
<path d="M6.08862 19.8734V48.8878C6.08862 50.0492 6.54997 51.163 7.37117 51.9842C8.19237 52.8054 9.30615 53.2667 10.4675 53.2667H43.1252V19.8734C43.1252 18.712 42.6638 17.5982 41.8426 16.777C41.0214 15.9559 39.9076 15.4945 38.7463 15.4945H10.4675C9.30615 15.4945 8.19237 15.9559 7.37117 16.777C6.54997 17.5982 6.08862 18.712 6.08862 19.8734Z" fill="#61DBBF"/>
<path d="M6.08862 19.8734V48.8878C6.08862 50.0492 6.54997 51.163 7.37117 51.9842C8.19237 52.8054 9.30615 53.2667 10.4675 53.2667H43.1252V19.8734C43.1252 18.712 42.6638 17.5982 41.8426 16.777C41.0214 15.9559 39.9076 15.4945 38.7463 15.4945H10.4675C9.30615 15.4945 8.19237 15.9559 7.37117 16.777C6.54997 17.5982 6.08862 18.712 6.08862 19.8734Z" stroke="#0A3762" stroke-width="4.71571" stroke-linecap="round" stroke-linejoin="round"/>
<path d="M43.1296 52.4478H56.8574C58.0188 52.4478 59.1326 51.9865 59.9538 51.1653C60.775 50.3441 61.2363 49.2303 61.2363 48.069V36.2241L43.1296 36.2197V52.4478Z" fill="#61DBBF"/>
<path d="M43.1296 52.4522H56.8574C58.0188 52.4522 59.1326 51.9909 59.9538 51.1697C60.775 50.3485 61.2363 49.2347 61.2363 48.0733V36.2197L43.1296 36.2153V52.4435V52.4522Z" stroke="#0A3762" stroke-width="4.71571" stroke-linecap="round" stroke-linejoin="round"/>
<path d="M61.2363 34.928L55.1409 22.4482C54.7814 21.7102 54.2216 21.0882 53.5256 20.6531C52.8295 20.2179 52.0252 19.9872 51.2043 19.9872H43.1296V36.2197L61.2363 36.2241V34.928Z" fill="white"/>
<path d="M61.2363 34.928L55.1409 22.4482C54.7814 21.7102 54.2216 21.0882 53.5256 20.6531C52.8295 20.2179 52.0252 19.9872 51.2043 19.9872H43.1296V36.2197L61.2363 36.2241V34.928Z" stroke="#0A3762" stroke-width="4.71571" stroke-linecap="round" stroke-linejoin="round"/>
<path d="M13.9705 53.398C13.9705 55.0193 14.6145 56.5741 15.7609 57.7205C16.9073 58.8669 18.4621 59.5109 20.0834 59.5109C21.7046 59.5109 23.2595 58.8669 24.4059 57.7205C25.5522 56.5741 26.1963 55.0193 26.1963 53.398C26.1963 51.7768 25.5522 50.2219 24.4059 49.0755C23.2595 47.9291 21.7046 47.2851 20.0834 47.2851C18.4621 47.2851 16.9073 47.9291 15.7609 49.0755C14.6145 50.2219 13.9705 51.7768 13.9705 53.398Z" fill="white"/>
<path d="M13.9705 53.398C13.9705 55.0193 14.6145 56.5741 15.7609 57.7205C16.9073 58.8669 18.4621 59.5109 20.0834 59.5109C21.7046 59.5109 23.2595 58.8669 24.4059 57.7205C25.5522 56.5741 26.1963 55.0193 26.1963 53.398C26.1963 51.7768 25.5522 50.2219 24.4059 49.0755C23.2595 47.9291 21.7046 47.2851 20.0834 47.2851C18.4621 47.2851 16.9073 47.9291 15.7609 49.0755C14.6145 50.2219 13.9705 51.7768 13.9705 53.398Z" stroke="#0A3762" stroke-width="4.71571" stroke-linecap="round" stroke-linejoin="round"/>
<path d="M41.7195 53.398C41.7195 54.2008 41.8776 54.9957 42.1848 55.7373C42.492 56.479 42.9423 57.1529 43.5099 57.7205C44.0776 58.2881 44.7514 58.7384 45.4931 59.0456C46.2347 59.3528 47.0296 59.5109 47.8324 59.5109C48.6352 59.5109 49.4301 59.3528 50.1717 59.0456C50.9134 58.7384 51.5872 58.2881 52.1549 57.7205C52.7225 57.1529 53.1728 56.479 53.48 55.7373C53.7872 54.9957 53.9453 54.2008 53.9453 53.398C53.9453 51.7768 53.3013 50.2219 52.1549 49.0755C51.0085 47.9291 49.4536 47.2851 47.8324 47.2851C46.2112 47.2851 44.6563 47.9291 43.5099 49.0755C42.3635 50.2219 41.7195 51.7768 41.7195 53.398Z" fill="white"/>
<path d="M41.7195 53.398C41.7195 54.2008 41.8776 54.9957 42.1848 55.7373C42.492 56.479 42.9423 57.1529 43.5099 57.7205C44.0776 58.2881 44.7514 58.7384 45.4931 59.0456C46.2347 59.3528 47.0296 59.5109 47.8324 59.5109C48.6352 59.5109 49.4301 59.3528 50.1717 59.0456C50.9134 58.7384 51.5872 58.2881 52.1549 57.7205C52.7225 57.1529 53.1728 56.479 53.48 55.7373C53.7872 54.9957 53.9453 54.2008 53.9453 53.398C53.9453 51.7768 53.3013 50.2219 52.1549 49.0755C51.0085 47.9291 49.4536 47.2851 47.8324 47.2851C46.2112 47.2851 44.6563 47.9291 43.5099 49.0755C42.3635 50.2219 41.7195 51.7768 41.7195 53.398Z" stroke="#0A3762" stroke-width="4.71571" stroke-linecap="round" stroke-linejoin="round"/>
<path d="M18.0342 33.01H31.1708" stroke="#0A3762" stroke-width="4.71571" stroke-linecap="round" stroke-linejoin="round"/>
<path d="M24.6023 26.4418V39.5784" stroke="#0A3762" stroke-width="4.71571" stroke-linecap="round" stroke-linejoin="round"/>
</svg>
