<svg width="323" height="42" viewBox="0 0 323 42" fill="none" xmlns="http://www.w3.org/2000/svg">
<rect x="8.21859" y="12.7816" width="29.2216" height="27.3952" stroke="#0A3762" stroke-width="1.82635"/>
<path d="M17.3503 4.56299H46.5719V29.2187" stroke="#0A3762" stroke-width="9.13174"/>
<path d="M55.753 22.0383C55.753 20.6929 55.991 19.3682 56.4671 18.0642C56.9639 16.7395 57.678 15.5597 58.6094 14.5247C59.5409 13.4898 60.6793 12.6515 62.0247 12.0099C63.3701 11.3682 64.9018 11.0474 66.6198 11.0474C68.6482 11.0474 70.3973 11.4924 71.8669 12.3824C73.3572 13.2725 74.4645 14.4316 75.189 15.8598L71.8979 18.1263C71.6081 17.5053 71.2563 16.9879 70.8423 16.5739C70.4283 16.1392 69.9833 15.7977 69.5072 15.5493C69.0312 15.3009 68.5344 15.125 68.0169 15.0215C67.4995 14.8973 66.9924 14.8352 66.4956 14.8352C65.4193 14.8352 64.4775 15.0526 63.6702 15.4872C62.8837 15.9219 62.2213 16.4911 61.6832 17.1949C61.1657 17.8779 60.7724 18.6645 60.5033 19.5545C60.2343 20.4238 60.0997 21.2932 60.0997 22.1625C60.0997 23.1354 60.255 24.0771 60.5654 24.9879C60.8759 25.8779 61.3106 26.6645 61.8694 27.3475C62.449 28.0306 63.1321 28.5791 63.9186 28.9931C64.7259 29.407 65.6055 29.614 66.5577 29.614C67.0544 29.614 67.5719 29.5519 68.1101 29.4277C68.6482 29.3035 69.1554 29.1069 69.6314 28.8378C70.1282 28.5687 70.5836 28.2272 70.9975 27.8132C71.4115 27.3786 71.7427 26.8611 71.9911 26.2608L75.4995 28.279C75.1476 29.1069 74.6405 29.8417 73.9781 30.4834C73.3365 31.1043 72.6017 31.6321 71.7737 32.0668C70.9665 32.5015 70.0971 32.8327 69.1657 33.0603C68.2343 33.288 67.3235 33.4019 66.4335 33.4019C64.8604 33.4019 63.4218 33.0707 62.1178 32.4083C60.8138 31.746 59.6857 30.887 58.7336 29.8314C57.8022 28.755 57.0674 27.5442 56.5292 26.1987C56.0117 24.8326 55.753 23.4458 55.753 22.0383ZM85.4828 33.5261C84.1581 33.5261 82.968 33.2984 81.9123 32.843C80.8567 32.3876 79.9563 31.777 79.2112 31.0112C78.4867 30.2246 77.9278 29.3242 77.5346 28.31C77.1413 27.2958 76.9447 26.2298 76.9447 25.1121C76.9447 23.9736 77.1413 22.8973 77.5346 21.8831C77.9278 20.8689 78.4867 19.9788 79.2112 19.213C79.9563 18.4264 80.8567 17.8055 81.9123 17.3501C82.968 16.8947 84.1581 16.667 85.4828 16.667C86.8075 16.667 87.9874 16.8947 89.0223 17.3501C90.0779 17.8055 90.968 18.4264 91.6924 19.213C92.4376 19.9788 93.0068 20.8689 93.4001 21.8831C93.7933 22.8973 93.99 23.9736 93.99 25.1121C93.99 26.2298 93.7933 27.2958 93.4001 28.31C93.0068 29.3242 92.4479 30.2246 91.7235 31.0112C90.999 31.777 90.109 32.3876 89.0533 32.843C87.9977 33.2984 86.8075 33.5261 85.4828 33.5261ZM81.2293 25.1121C81.2293 25.8365 81.3328 26.4989 81.5398 27.0991C81.7674 27.6787 82.0676 28.1858 82.4401 28.6205C82.8334 29.0552 83.2888 29.3967 83.8062 29.6451C84.3237 29.8728 84.8826 29.9866 85.4828 29.9866C86.0831 29.9866 86.642 29.8728 87.1594 29.6451C87.6769 29.3967 88.1219 29.0552 88.4945 28.6205C88.8878 28.1858 89.1879 27.6684 89.3949 27.0681C89.6226 26.4678 89.7364 25.8055 89.7364 25.081C89.7364 24.3773 89.6226 23.7253 89.3949 23.125C89.1879 22.5247 88.8878 22.0073 88.4945 21.5726C88.1219 21.1379 87.6769 20.8068 87.1594 20.5791C86.642 20.3307 86.0831 20.2065 85.4828 20.2065C84.8826 20.2065 84.3237 20.3307 83.8062 20.5791C83.2888 20.8275 82.8334 21.169 82.4401 21.6037C82.0676 22.0383 81.7674 22.5558 81.5398 23.1561C81.3328 23.7563 81.2293 24.4083 81.2293 25.1121ZM122.071 33.2156H117.911V24.0875C117.911 22.7835 117.683 21.8313 117.228 21.2311C116.793 20.6308 116.182 20.3307 115.396 20.3307C114.568 20.3307 113.792 20.6515 113.067 21.2932C112.343 21.9141 111.825 22.7317 111.515 23.746V33.2156H107.354V24.0875C107.354 22.7835 107.127 21.8313 106.671 21.2311C106.237 20.6308 105.626 20.3307 104.84 20.3307C104.032 20.3307 103.256 20.6412 102.511 21.2621C101.786 21.8831 101.269 22.7007 100.959 23.7149V33.2156H96.7981V16.9465H100.555V19.9581C101.155 18.9025 101.973 18.0952 103.008 17.5364C104.063 16.9568 105.264 16.667 106.609 16.667C107.975 16.667 109.031 16.9982 109.776 17.6606C110.521 18.3229 110.997 19.1405 111.204 20.1134C111.867 18.9956 112.705 18.147 113.719 17.5674C114.733 16.9672 115.893 16.667 117.197 16.667C118.19 16.667 119.008 16.8533 119.649 17.2259C120.291 17.5985 120.788 18.0849 121.14 18.6852C121.492 19.2854 121.73 19.9685 121.854 20.7343C121.999 21.5002 122.071 22.2764 122.071 23.0629V33.2156ZM135.442 33.5261C134.159 33.5261 133.041 33.2466 132.089 32.6878C131.137 32.1082 130.392 31.332 129.854 30.3592V39.8288H125.693V16.9465H129.326V19.7408C129.926 18.7886 130.702 18.0435 131.654 17.5053C132.607 16.9465 133.704 16.667 134.946 16.667C136.043 16.667 137.057 16.8947 137.988 17.3501C138.92 17.7848 139.717 18.385 140.379 19.1509C141.062 19.896 141.59 20.7861 141.962 21.821C142.356 22.8352 142.552 23.9116 142.552 25.05C142.552 26.2298 142.376 27.3372 142.024 28.3721C141.673 29.407 141.176 30.3074 140.534 31.0733C139.913 31.8391 139.168 32.4394 138.299 32.874C137.429 33.3087 136.477 33.5261 135.442 33.5261ZM134.045 29.9866C134.666 29.9866 135.235 29.8521 135.753 29.583C136.291 29.3139 136.746 28.9517 137.119 28.4963C137.491 28.0409 137.781 27.5131 137.988 26.9129C138.195 26.3126 138.299 25.6916 138.299 25.05C138.299 24.3669 138.185 23.7356 137.957 23.1561C137.73 22.5558 137.409 22.0383 136.995 21.6037C136.601 21.169 136.125 20.8275 135.567 20.5791C135.028 20.3307 134.438 20.2065 133.797 20.2065C133.403 20.2065 133 20.2789 132.586 20.4238C132.172 20.548 131.789 20.7343 131.437 20.9827C131.085 21.2311 130.764 21.5209 130.475 21.852C130.206 22.1832 129.999 22.5454 129.854 22.9387V26.7576C130.226 27.689 130.795 28.4652 131.561 29.0862C132.327 29.6865 133.155 29.9866 134.045 29.9866ZM152.916 33.5261C151.612 33.5261 150.432 33.3087 149.376 32.874C148.321 32.4187 147.42 31.8081 146.675 31.0422C145.93 30.2764 145.35 29.3863 144.936 28.3721C144.543 27.3579 144.347 26.2919 144.347 25.1742C144.347 24.015 144.543 22.9284 144.936 21.9141C145.33 20.8792 145.899 19.9788 146.644 19.213C147.389 18.4264 148.29 17.8055 149.345 17.3501C150.422 16.8947 151.622 16.667 152.947 16.667C154.271 16.667 155.451 16.8947 156.486 17.3501C157.542 17.8055 158.432 18.4161 159.156 19.1819C159.902 19.9478 160.46 20.8378 160.833 21.852C161.226 22.8663 161.423 23.9219 161.423 25.0189C161.423 25.288 161.413 25.5467 161.392 25.7951C161.392 26.0435 161.371 26.2505 161.33 26.4161H148.755C148.817 27.0577 148.973 27.627 149.221 28.1237C149.469 28.6205 149.79 29.0448 150.184 29.3967C150.577 29.7486 151.022 30.0176 151.519 30.2039C152.015 30.3902 152.533 30.4834 153.071 30.4834C153.899 30.4834 154.675 30.2867 155.4 29.8935C156.145 29.4795 156.652 28.9413 156.921 28.279L160.491 29.2725C159.891 30.5144 158.929 31.539 157.604 32.3462C156.3 33.1328 154.737 33.5261 152.916 33.5261ZM157.138 23.7149C157.035 22.4937 156.579 21.5209 155.772 20.7964C154.986 20.0513 154.023 19.6787 152.885 19.6787C152.326 19.6787 151.798 19.7822 151.301 19.9892C150.825 20.1755 150.401 20.4445 150.028 20.7964C149.656 21.1483 149.345 21.5726 149.097 22.0694C148.869 22.5661 148.735 23.1147 148.693 23.7149H157.138ZM179.078 33.2156H174.917V24.0875C174.917 22.7835 174.69 21.8313 174.234 21.2311C173.779 20.6308 173.148 20.3307 172.34 20.3307C171.926 20.3307 171.502 20.4135 171.067 20.5791C170.633 20.7447 170.219 20.9827 169.825 21.2932C169.453 21.583 169.111 21.9348 168.801 22.3488C168.49 22.7628 168.263 23.2182 168.118 23.7149V33.2156H163.957V16.9465H167.714V19.9581C168.314 18.9232 169.184 18.1159 170.322 17.5364C171.461 16.9568 172.744 16.667 174.172 16.667C175.186 16.667 176.014 16.8533 176.656 17.2259C177.298 17.5985 177.794 18.0849 178.146 18.6852C178.498 19.2854 178.736 19.9685 178.86 20.7343C179.005 21.5002 179.078 22.2764 179.078 23.0629V33.2156ZM188.843 33.5261C187.477 33.5261 186.142 33.3087 184.838 32.874C183.534 32.4394 182.416 31.8184 181.484 31.0112L183.037 28.4032C184.03 29.1069 184.993 29.6451 185.924 30.0176C186.876 30.3695 187.818 30.5455 188.75 30.5455C189.578 30.5455 190.23 30.3902 190.706 30.0797C191.182 29.7693 191.42 29.3242 191.42 28.7447C191.42 28.1651 191.14 27.7408 190.581 27.4717C190.023 27.2026 189.112 26.8922 187.849 26.5403C186.794 26.2505 185.893 25.9711 185.148 25.702C184.403 25.4329 183.803 25.1328 183.347 24.8016C182.892 24.4497 182.561 24.0564 182.354 23.6218C182.147 23.1664 182.043 22.6282 182.043 22.0073C182.043 21.1793 182.199 20.4342 182.509 19.7718C182.84 19.1095 183.296 18.5506 183.875 18.0952C184.455 17.6192 185.127 17.257 185.893 17.0086C186.68 16.7602 187.528 16.636 188.439 16.636C189.66 16.636 190.799 16.8119 191.854 17.1638C192.931 17.5157 193.914 18.0849 194.804 18.8714L193.127 21.3863C192.299 20.7654 191.492 20.31 190.706 20.0202C189.94 19.7304 189.174 19.5855 188.408 19.5855C187.704 19.5855 187.114 19.7304 186.638 20.0202C186.162 20.31 185.924 20.7757 185.924 21.4174C185.924 21.7072 185.976 21.9452 186.079 22.1315C186.204 22.3178 186.39 22.4834 186.638 22.6282C186.887 22.7731 187.208 22.918 187.601 23.0629C188.015 23.1871 188.522 23.3216 189.122 23.4665C190.24 23.7563 191.192 24.0461 191.979 24.3359C192.786 24.6257 193.438 24.9568 193.935 25.3294C194.452 25.702 194.825 26.1367 195.052 26.6334C195.301 27.1095 195.425 27.689 195.425 28.3721C195.425 29.9659 194.835 31.2285 193.655 32.1599C192.475 33.0707 190.871 33.5261 188.843 33.5261ZM202.568 33.5261C201.782 33.5261 201.047 33.4019 200.364 33.1535C199.681 32.8844 199.091 32.5222 198.594 32.0668C198.097 31.5907 197.704 31.0422 197.414 30.4213C197.145 29.8003 197.011 29.1173 197.011 28.3721C197.011 27.6063 197.176 26.9025 197.507 26.2608C197.859 25.5985 198.335 25.0396 198.936 24.5843C199.556 24.1289 200.291 23.777 201.14 23.5286C201.989 23.2595 202.92 23.125 203.934 23.125C204.659 23.125 205.362 23.1871 206.045 23.3113C206.749 23.4355 207.37 23.6114 207.908 23.8391V22.9077C207.908 21.8313 207.598 21.0034 206.977 20.4238C206.377 19.8443 205.476 19.5545 204.276 19.5545C203.406 19.5545 202.558 19.7097 201.73 20.0202C200.902 20.3307 200.053 20.7861 199.184 21.3863L197.911 18.7473C200.001 17.3604 202.258 16.667 204.679 16.667C207.018 16.667 208.829 17.2466 210.113 18.4057C211.417 19.5441 212.069 21.2 212.069 23.3734V28.4342C212.069 28.8689 212.141 29.1793 212.286 29.3656C212.452 29.5519 212.71 29.6554 213.062 29.6761V33.2156C212.359 33.3605 211.748 33.4329 211.23 33.4329C210.444 33.4329 209.833 33.257 209.399 32.9051C208.985 32.5532 208.726 32.0875 208.622 31.5079L208.529 30.6076C207.805 31.5597 206.925 32.2841 205.89 32.7809C204.855 33.2777 203.748 33.5261 202.568 33.5261ZM203.748 30.4834C204.452 30.4834 205.114 30.3592 205.735 30.1108C206.377 29.8624 206.873 29.5312 207.225 29.1173C207.681 28.7654 207.908 28.3721 207.908 27.9374V26.0746C207.412 25.8883 206.873 25.7434 206.294 25.6399C205.714 25.5157 205.155 25.4536 204.617 25.4536C203.541 25.4536 202.661 25.702 201.978 26.1987C201.295 26.6748 200.954 27.2854 200.954 28.0306C200.954 28.7343 201.223 29.3242 201.761 29.8003C202.299 30.2557 202.961 30.4834 203.748 30.4834ZM225.584 32.3773C225.025 32.6257 224.342 32.874 223.535 33.1224C222.728 33.3708 221.879 33.495 220.989 33.495C220.41 33.495 219.861 33.4226 219.344 33.2777C218.847 33.1328 218.402 32.9051 218.009 32.5946C217.636 32.2634 217.336 31.8495 217.108 31.3527C216.881 30.8352 216.767 30.2143 216.767 29.4898V20.1444H214.624V16.9465H216.767V11.6683H220.927V16.9465H224.342V20.1444H220.927V28.0927C220.927 28.6722 221.072 29.0862 221.362 29.3346C221.672 29.5623 222.045 29.6761 222.48 29.6761C222.914 29.6761 223.339 29.6037 223.752 29.4588C224.166 29.3139 224.498 29.1897 224.746 29.0862L225.584 32.3773ZM234.902 33.5261C233.598 33.5261 232.418 33.3087 231.362 32.874C230.307 32.4187 229.406 31.8081 228.661 31.0422C227.916 30.2764 227.336 29.3863 226.922 28.3721C226.529 27.3579 226.332 26.2919 226.332 25.1742C226.332 24.015 226.529 22.9284 226.922 21.9141C227.316 20.8792 227.885 19.9788 228.63 19.213C229.375 18.4264 230.275 17.8055 231.331 17.3501C232.407 16.8947 233.608 16.667 234.933 16.667C236.257 16.667 237.437 16.8947 238.472 17.3501C239.528 17.8055 240.418 18.4161 241.142 19.1819C241.887 19.9478 242.446 20.8378 242.819 21.852C243.212 22.8663 243.409 23.9219 243.409 25.0189C243.409 25.288 243.398 25.5467 243.378 25.7951C243.378 26.0435 243.357 26.2505 243.316 26.4161H230.741C230.803 27.0577 230.959 27.627 231.207 28.1237C231.455 28.6205 231.776 29.0448 232.169 29.3967C232.563 29.7486 233.008 30.0176 233.504 30.2039C234.001 30.3902 234.519 30.4834 235.057 30.4834C235.885 30.4834 236.661 30.2867 237.385 29.8935C238.131 29.4795 238.638 28.9413 238.907 28.279L242.477 29.2725C241.877 30.5144 240.915 31.539 239.59 32.3462C238.286 33.1328 236.723 33.5261 234.902 33.5261ZM239.124 23.7149C239.021 22.4937 238.565 21.5209 237.758 20.7964C236.971 20.0513 236.009 19.6787 234.871 19.6787C234.312 19.6787 233.784 19.7822 233.287 19.9892C232.811 20.1755 232.387 20.4445 232.014 20.7964C231.642 21.1483 231.331 21.5726 231.083 22.0694C230.855 22.5661 230.72 23.1147 230.679 23.7149H239.124Z" fill="#0A3762"/>
<path d="M246.347 33.2156V11.1716H256.096C257.11 11.1716 258.042 11.3889 258.89 11.8236C259.76 12.2375 260.505 12.7964 261.126 13.5002C261.747 14.1832 262.233 14.9698 262.585 15.8598C262.937 16.7291 263.113 17.6088 263.113 18.4989C263.113 19.9271 262.751 21.2311 262.026 22.4109C261.322 23.57 260.36 24.4083 259.139 24.9258L264.168 33.2156H259.356L254.854 25.8262H250.631V33.2156H246.347ZM250.631 22.0694H256.003C256.396 22.0694 256.758 21.9762 257.089 21.7899C257.441 21.6037 257.741 21.3553 257.99 21.0448C258.238 20.7136 258.435 20.3307 258.58 19.896C258.725 19.4614 258.797 18.9956 258.797 18.4989C258.797 17.9814 258.714 17.5053 258.549 17.0707C258.383 16.636 258.155 16.2634 257.866 15.9529C257.597 15.6218 257.276 15.3734 256.903 15.2078C256.551 15.0215 256.189 14.9284 255.816 14.9284H250.631V22.0694ZM266.44 33.2156V16.9465H270.6V33.2156H266.44ZM266.44 14.68V10.5506H270.6V14.68H266.44ZM280.718 33.3087C279.621 33.3087 278.628 33.0914 277.738 32.6567C276.847 32.222 276.071 31.6321 275.409 30.887C274.767 30.1211 274.271 29.2414 273.919 28.2479C273.567 27.2544 273.391 26.1987 273.391 25.081C273.391 23.9012 273.577 22.8042 273.95 21.7899C274.322 20.7757 274.84 19.8857 275.502 19.1198C276.164 18.354 276.961 17.7537 277.893 17.319C278.824 16.8844 279.849 16.667 280.967 16.667C282.229 16.667 283.336 16.9568 284.289 17.5364C285.241 18.0952 286.027 18.8507 286.648 19.8029V16.9465H290.281V32.4394C290.281 33.6399 290.053 34.7162 289.598 35.6684C289.142 36.6205 288.511 37.4277 287.704 38.0901C286.917 38.7525 285.965 39.2596 284.847 39.6114C283.75 39.9633 282.55 40.1393 281.246 40.1393C279.466 40.1393 277.965 39.8391 276.744 39.2389C275.543 38.6593 274.509 37.8314 273.639 36.755L275.906 34.5506C276.527 35.3165 277.303 35.9167 278.234 36.3514C279.186 36.7861 280.19 37.0034 281.246 37.0034C281.888 37.0034 282.498 36.9103 283.078 36.724C283.678 36.5584 284.206 36.2893 284.661 35.9167C285.117 35.5442 285.468 35.0681 285.717 34.4885C285.986 33.909 286.12 33.2259 286.12 32.4394V30.3902C285.582 31.3217 284.827 32.0461 283.854 32.5636C282.881 33.0603 281.836 33.3087 280.718 33.3087ZM282.115 29.9866C282.571 29.9866 283.005 29.9141 283.419 29.7693C283.833 29.6244 284.216 29.4277 284.568 29.1793C284.92 28.931 285.23 28.6412 285.5 28.31C285.769 27.9788 285.976 27.627 286.12 27.2544V23.3734C285.748 22.4213 285.158 21.6554 284.351 21.0758C283.564 20.4963 282.736 20.2065 281.867 20.2065C281.225 20.2065 280.646 20.3514 280.128 20.6412C279.611 20.9103 279.166 21.2828 278.793 21.7589C278.421 22.2143 278.131 22.7421 277.924 23.3423C277.738 23.9426 277.644 24.5636 277.644 25.2052C277.644 25.8676 277.758 26.4885 277.986 27.0681C278.214 27.6477 278.524 28.1548 278.917 28.5894C279.331 29.0241 279.807 29.3656 280.346 29.614C280.884 29.8624 281.474 29.9866 282.115 29.9866ZM309.151 33.2156H304.991V24.0875C304.991 22.8042 304.753 21.8624 304.277 21.2621C303.801 20.6412 303.128 20.3307 302.259 20.3307C301.886 20.3307 301.493 20.4135 301.079 20.5791C300.665 20.7447 300.272 20.9827 299.899 21.2932C299.527 21.583 299.185 21.9348 298.875 22.3488C298.564 22.7628 298.336 23.2182 298.192 23.7149V33.2156H294.031V10.5506H298.192V19.9581C298.792 18.9025 299.599 18.0952 300.613 17.5364C301.648 16.9568 302.787 16.667 304.029 16.667C305.084 16.667 305.943 16.8533 306.606 17.2259C307.268 17.5778 307.785 18.0538 308.158 18.6541C308.53 19.2544 308.789 19.9374 308.934 20.7033C309.079 21.4691 309.151 22.2557 309.151 23.0629V33.2156ZM322.366 32.3773C321.808 32.6257 321.125 32.874 320.317 33.1224C319.51 33.3708 318.661 33.495 317.771 33.495C317.192 33.495 316.643 33.4226 316.126 33.2777C315.629 33.1328 315.184 32.9051 314.791 32.5946C314.418 32.2634 314.118 31.8495 313.89 31.3527C313.663 30.8352 313.549 30.2143 313.549 29.4898V20.1444H311.407V16.9465H313.549V11.6683H317.709V16.9465H321.125V20.1444H317.709V28.0927C317.709 28.6722 317.854 29.0862 318.144 29.3346C318.454 29.5623 318.827 29.6761 319.262 29.6761C319.696 29.6761 320.121 29.6037 320.535 29.4588C320.949 29.3139 321.28 29.1897 321.528 29.0862L322.366 32.3773Z" fill="#07BDEC"/>
</svg>
