<svg width="66" height="67" viewBox="0 0 66 67" fill="none" xmlns="http://www.w3.org/2000/svg">
<path d="M34.292 46.0152C34.292 43.8827 36.0216 42.153 38.1542 42.153H57.4738C59.6063 42.153 61.3359 43.8827 61.3359 46.0196V57.6105C61.3359 58.6348 60.929 59.6171 60.2047 60.3414C59.4804 61.0657 58.4981 61.4726 57.4738 61.4726H38.1542C37.1299 61.4726 36.1475 61.0657 35.4232 60.3414C34.6989 59.6171 34.292 58.6348 34.292 57.6105V46.0152Z" fill="white"/>
<path d="M9.15266 26.5511C11.2958 24.406 14.0271 22.9448 17.001 22.3525C19.9749 21.7602 23.0576 22.0633 25.8591 23.2236C28.6606 24.3839 31.055 26.3491 32.7392 28.8706C34.4235 31.3921 35.3219 34.3565 35.3208 37.3888V43.9571H27.8855L25.6961 61.4726H14.2891L12.0996 43.9571H4.66431V37.3888C4.66416 35.3761 5.06046 33.3831 5.83057 31.5235C6.60069 29.664 7.72953 27.9744 9.15266 26.5511Z" fill="#61DBBF"/>
<path d="M19.9948 22.0628C22.3175 22.0628 24.5451 21.1401 26.1875 19.4977C27.8299 17.8553 28.7526 15.6277 28.7526 13.305C28.7526 10.9823 27.8299 8.75473 26.1875 7.11233C24.5451 5.46993 22.3175 4.54724 19.9948 4.54724C17.6721 4.54724 15.4445 5.46993 13.8021 7.11233C12.1597 8.75473 11.2371 10.9823 11.2371 13.305C11.2371 15.6277 12.1597 17.8553 13.8021 19.4977C15.4445 21.1401 17.6721 22.0628 19.9948 22.0628Z" fill="#61DBBF"/>
<path d="M19.9948 22.0628C22.3175 22.0628 24.5451 21.1401 26.1875 19.4977C27.8299 17.8553 28.7526 15.6277 28.7526 13.305C28.7526 10.9823 27.8299 8.75473 26.1875 7.11233C24.5451 5.46993 22.3175 4.54724 19.9948 4.54724C17.6721 4.54724 15.4445 5.46993 13.8021 7.11233C12.1597 8.75473 11.2371 10.9823 11.2371 13.305C11.2371 15.6277 12.1597 17.8553 13.8021 19.4977C15.4445 21.1401 17.6721 22.0628 19.9948 22.0628Z" stroke="#0A3762" stroke-width="4.71571" stroke-linecap="round" stroke-linejoin="round"/>
<path d="M27.3775 48.4411L25.7486 61.4726H14.2891L12.0996 43.9571H4.66431V37.3888C4.66489 33.5658 6.09427 29.881 8.6719 27.0577C11.2495 24.2344 14.7893 22.4763 18.5965 22.1286C22.4036 21.7809 26.2033 22.8687 29.2497 25.1784C32.2962 27.4881 34.3694 30.853 35.0625 34.6126" stroke="#0A3762" stroke-width="4.71571" stroke-linecap="round" stroke-linejoin="round"/>
<path d="M34.292 46.0152C34.292 43.8827 36.0216 42.153 38.1542 42.153H57.4738C59.6063 42.153 61.3359 43.8827 61.3359 46.0196V57.6105C61.3359 58.6348 60.929 59.6171 60.2047 60.3414C59.4804 61.0657 58.4981 61.4726 57.4738 61.4726H38.1542C37.1299 61.4726 36.1475 61.0657 35.4232 60.3414C34.6989 59.6171 34.292 58.6348 34.292 57.6105V46.0152Z" stroke="#0A3762" stroke-width="4.71571" stroke-linecap="round" stroke-linejoin="round"/>
<path d="M42.5286 42.153V39.3067C42.5286 38.1454 42.9899 37.0316 43.8111 36.2104C44.6323 35.3892 45.7461 34.9279 46.9074 34.9279H48.7115C49.8729 34.9279 50.9867 35.3892 51.8079 36.2104C52.6291 37.0316 53.0904 38.1454 53.0904 39.3067V42.153" stroke="#0A3762" stroke-width="4.71571" stroke-linecap="round" stroke-linejoin="round"/>
</svg>
