<svg width="67" height="66" viewBox="0 0 67 66" fill="none" xmlns="http://www.w3.org/2000/svg">
<path d="M22.7439 19.2282C24.8058 19.2282 26.7833 20.0473 28.2413 21.5053C29.6993 22.9633 30.5184 24.9408 30.5184 27.0027C30.5184 29.0647 29.6993 31.0422 28.2413 32.5002C26.7833 33.9582 24.8058 34.7773 22.7439 34.7773C20.682 34.7773 18.7045 33.9582 17.2465 32.5002C15.7885 31.0422 14.9694 29.0647 14.9694 27.0027C14.9694 24.9408 15.7885 22.9633 17.2465 21.5053C18.7045 20.0473 20.682 19.2282 22.7439 19.2282Z" fill="#61DBBF"/>
<path d="M53.3868 6.23559C54.423 6.21099 55.4537 6.39385 56.4182 6.77339C57.3827 7.15293 58.2615 7.72151 59.0031 8.44567C59.7447 9.16983 60.3339 10.035 60.7362 10.9902C61.1386 11.9454 61.3458 12.9714 61.3458 14.0079C61.3458 15.0444 61.1386 16.0704 60.7362 17.0257C60.3339 17.9809 59.7447 18.846 59.0031 19.5702C58.2615 20.2944 57.3827 20.8629 56.4182 21.2425C55.4537 21.622 54.423 21.8049 53.3868 21.7803C51.3574 21.7321 49.4273 20.8921 48.009 19.4397C46.5907 17.9874 45.7968 16.0379 45.7968 14.0079C45.7968 11.9779 46.5907 10.0285 48.009 8.57612C49.4273 7.12377 51.3574 6.28375 53.3868 6.23559Z" fill="#61DBBF"/>
<path d="M42.5786 34.7772C44.6405 34.7772 46.618 35.5963 48.076 37.0543C49.534 38.5123 50.3531 40.4898 50.3531 42.5518C50.3531 44.6137 49.534 46.5912 48.076 48.0492C46.618 49.5072 44.6405 50.3263 42.5786 50.3263C40.5167 50.3263 38.5392 49.5072 37.0812 48.0492C35.6232 46.5912 34.8041 44.6137 34.8041 42.5518C34.8041 40.4898 35.6232 38.5123 37.0812 37.0543C38.5392 35.5963 40.5167 34.7772 42.5786 34.7772Z" fill="#61DBBF"/>
<path d="M5.50513 5.17188V60.8281H61.1613" stroke="#0A3762" stroke-width="3.43" stroke-linecap="round" stroke-linejoin="round"/>
<path d="M22.7439 19.2282C24.8058 19.2282 26.7833 20.0473 28.2413 21.5053C29.6993 22.9633 30.5184 24.9408 30.5184 27.0027C30.5184 29.0647 29.6993 31.0422 28.2413 32.5002C26.7833 33.9582 24.8058 34.7773 22.7439 34.7773C20.682 34.7773 18.7045 33.9582 17.2465 32.5002C15.7885 31.0422 14.9694 29.0647 14.9694 27.0027C14.9694 24.9408 15.7885 22.9633 17.2465 21.5053C18.7045 20.0473 20.682 19.2282 22.7439 19.2282Z" stroke="#0A3762" stroke-width="3.43" stroke-linecap="round" stroke-linejoin="round"/>
<path d="M53.3868 6.23559C54.423 6.21099 55.4537 6.39385 56.4182 6.77339C57.3827 7.15293 58.2615 7.72151 59.0031 8.44567C59.7447 9.16983 60.3339 10.035 60.7362 10.9902C61.1386 11.9454 61.3458 12.9714 61.3458 14.0079C61.3458 15.0444 61.1386 16.0704 60.7362 17.0257C60.3339 17.9809 59.7447 18.846 59.0031 19.5702C58.2615 20.2944 57.3827 20.8629 56.4182 21.2425C55.4537 21.622 54.423 21.8049 53.3868 21.7803C51.3574 21.7321 49.4273 20.8921 48.009 19.4397C46.5907 17.9874 45.7968 16.0379 45.7968 14.0079C45.7968 11.9779 46.5907 10.0285 48.009 8.57612C49.4273 7.12377 51.3574 6.28375 53.3868 6.23559Z" stroke="#0A3762" stroke-width="3.43" stroke-linecap="round" stroke-linejoin="round"/>
<path d="M42.5786 34.7772C44.6405 34.7772 46.618 35.5963 48.076 37.0543C49.534 38.5123 50.3531 40.4898 50.3531 42.5518C50.3531 44.6137 49.534 46.5912 48.076 48.0492C46.618 49.5072 44.6405 50.3263 42.5786 50.3263C40.5167 50.3263 38.5392 49.5072 37.0812 48.0492C35.6232 46.5912 34.8041 44.6137 34.8041 42.5518C34.8041 40.4898 35.6232 38.5123 37.0812 37.0543C38.5392 35.5963 40.5167 34.7772 42.5786 34.7772Z" stroke="#0A3762" stroke-width="3.43" stroke-linecap="round" stroke-linejoin="round"/>
<path d="M5.50513 43.6112L16.5978 31.7655" stroke="#0A3762" stroke-width="3.43" stroke-linecap="round" stroke-linejoin="round"/>
<path d="M29.5248 30.8812L36.6383 37.5088" stroke="#0A3762" stroke-width="3.43" stroke-linecap="round" stroke-linejoin="round"/>
<path d="M46.0106 35.5302L51.1367 21.4388" stroke="#0A3762" stroke-width="3.43" stroke-linecap="round" stroke-linejoin="round"/>
</svg>
