<svg width="49" height="49" viewBox="0 0 49 49" fill="none" xmlns="http://www.w3.org/2000/svg">
<path d="M10.7062 38.7583L11.805 40.01L28.4307 44.469L29.6601 43.762C30.3848 43.3435 31.02 42.7864 31.5293 42.1224C32.0387 41.4584 32.4122 40.7006 32.6285 39.8922L38.0717 19.5814C38.303 18.6678 38.1653 17.6998 37.6884 16.8869C37.2116 16.0739 36.4339 15.4814 35.5235 15.2374C34.6132 14.9934 33.6434 15.1175 32.8239 15.583C32.0044 16.0484 31.401 16.8177 31.1443 17.7246L33.0012 10.7972C33.225 9.88595 33.0827 8.92326 32.6049 8.11567C32.1271 7.30808 31.3519 6.71992 30.4454 6.47736C29.539 6.23481 28.5735 6.35718 27.7563 6.81823C26.939 7.27928 26.335 8.04228 26.0738 8.94354L24.959 13.1C25.0885 12.6428 25.1257 12.1644 25.0687 11.6926C25.0117 11.2209 24.8614 10.7652 24.6268 10.352C24.3921 9.93882 24.0777 9.57639 23.7017 9.28577C23.3258 8.99515 22.8958 8.78214 22.4368 8.65911C21.9779 8.53608 21.499 8.5055 21.0281 8.56912C20.5572 8.63275 20.1037 8.78932 19.6938 9.02974C19.2839 9.27016 18.9259 9.58964 18.6406 9.96961C18.3553 10.3496 18.1483 10.7825 18.0317 11.2431L13.3911 28.5568L11.5438 24.3366C11.1758 23.487 10.4899 22.8151 9.63286 22.4646C8.77582 22.1141 7.81567 22.1128 6.95772 22.4611C6.09977 22.8093 5.41214 23.4795 5.04187 24.3281C4.6716 25.1768 4.64808 26.1367 4.97636 27.0025L7.16445 32.847C7.97706 35.0158 9.17714 37.0188 10.7062 38.7583Z" fill="#61DBBF"/>
<path d="M43.26 14.2976C43.1506 12.5635 42.5472 10.8968 41.521 9.49463" stroke="#0A3762" stroke-width="3.43" stroke-linecap="round" stroke-linejoin="round"/>
<path d="M12.5981 6.73639C13.5603 5.28939 14.9163 4.14778 16.5061 3.44629" stroke="#0A3762" stroke-width="3.43" stroke-linecap="round" stroke-linejoin="round"/>
<path d="M11.805 40.0102L10.7062 38.7585C9.176 37.0192 7.97483 35.0161 7.16126 32.8471L4.96998 27.0026C4.70608 26.2962 4.67436 25.524 4.87941 24.7983C5.08447 24.0725 5.51562 23.4311 6.11021 22.9672C6.53574 22.6336 7.03195 22.4018 7.56087 22.2895C8.08978 22.1772 8.63739 22.1873 9.16177 22.3192C9.68616 22.4511 10.1734 22.7011 10.5863 23.0503C10.9992 23.3994 11.3267 23.8384 11.5438 24.3336L13.3911 28.5537C14.7798 28.9232 17.9552 30.3692 19.5796 33.1783" stroke="#0A3762" stroke-width="3.43" stroke-linecap="round" stroke-linejoin="round"/>
<path d="M13.3911 28.56L18.0317 11.2463C18.5444 9.33533 20.5128 8.19829 22.427 8.71107C24.338 9.22067 25.4718 11.189 24.959 13.1032L22.1753 23.4927L26.0738 8.94676C26.5834 7.03258 28.5517 5.89872 30.4659 6.40832C32.3769 6.9211 33.5139 8.88943 33.0012 10.8036L28.7333 26.735L31.1443 17.7278C31.6571 15.8168 33.6222 14.6798 35.5364 15.1925C37.4474 15.7053 38.5845 17.6705 38.0717 19.5878L32.6285 39.8954C32.4122 40.7038 32.0387 41.4616 31.5293 42.1256C31.02 42.7896 30.3848 43.3468 29.6601 43.7652L28.4339 44.4723" stroke="#0A3762" stroke-width="3.43" stroke-linecap="round" stroke-linejoin="round"/>
</svg>
